<?xml version="1.0" encoding="UTF-8" standalone="no"?>
<svg
   viewBox="0 0 432.00009 448"
   x="0px"
   y="0px"
   version="1.1"
   id="svg42"
   sodipodi:docname="hike.svg"
   width="432.00009"
   height="448"
   inkscape:version="1.1 (c68e22c387, 2021-05-23)"
   xmlns:inkscape="http://www.inkscape.org/namespaces/inkscape"
   xmlns:sodipodi="http://sodipodi.sourceforge.net/DTD/sodipodi-0.dtd"
   xmlns="http://www.w3.org/2000/svg"
   xmlns:svg="http://www.w3.org/2000/svg">
  <defs
     id="defs46" />
  <sodipodi:namedview
     id="namedview44"
     pagecolor="#ffffff"
     bordercolor="#666666"
     borderopacity="1.0"
     inkscape:pageshadow="2"
     inkscape:pageopacity="0.0"
     inkscape:pagecheckerboard="0"
     showgrid="false"
     fit-margin-top="0"
     fit-margin-left="0"
     fit-margin-right="0"
     fit-margin-bottom="0"
     inkscape:zoom="0.64375"
     inkscape:cx="163.8835"
     inkscape:cy="219.80583"
     inkscape:window-width="1920"
     inkscape:window-height="1013"
     inkscape:window-x="-9"
     inkscape:window-y="-9"
     inkscape:window-maximized="1"
     inkscape:current-layer="svg42" />
  <path
     d="m 352.00009,16 h 56 a -8.009,8.009 0 0 1 8,8 v 32 a -8.009,8.009 0 0 1 -8,8 h -56 z"
     id="path2"
     style="fill:#412643;fill-opacity:1" />
  <path
     d="m 352.00009,80 h 32 v 48 h -32 v -8 a -8,8 0 0 0 -8,-8 h -32 a -8,8 0 0 0 -8,8 v 8 h -80 v -8 a -8,8 0 0 0 -8,-8 h -32 a -8,8 0 0 0 -8,8 v 8 h -32 V 80 h 32 v 8 a -8,8 0 0 0 8,8 h 32 a -8,8 0 0 0 8,-8 v -8 h 80 v 8 a -8,8 0 0 0 8,8 h 32 a -8,8 0 0 0 8,-8 z"
     id="path4"
     style="fill:#412643;fill-opacity:1" />
  <rect
     x="-304.00009"
     y="16"
     width="80"
     height="48"
     id="rect6"
     style="fill:#412643;fill-opacity:1"
     transform="scale(-1,1)" />
  <rect
     x="-336.00009"
     y="0"
     width="16"
     height="80"
     id="rect8"
     style="fill:#412643;fill-opacity:1"
     transform="scale(-1,1)" />
  <rect
     x="-208.00009"
     y="0"
     width="16"
     height="80"
     id="rect10"
     style="fill:#412643;fill-opacity:1"
     transform="scale(-1,1)" />
  <path
     d="m 192.00009,152 v -24 h 16 v 24 a -8,8 0 0 1 -16,0 z"
     id="path12"
     style="fill:#412643;fill-opacity:1" />
  <path
     d="M 112.00009,56 V 24 a -8.009,8.009 0 0 1 8,-8 h 56 v 48 h -56 a -8.009,8.009 0 0 1 -8,-8 z"
     id="path14"
     style="fill:#412643;fill-opacity:1" />
  <polygon
     points="264,432 264,414.246 216,402.246 216,432 "
     id="polygon16"
     style="fill:#412643;fill-opacity:1"
     transform="matrix(-1,0,0,1,472.00009,-32)" />
  <path
     d="m 176.00009,240 v -8 a -24.028,24.028 0 0 1 24,-24 h 128 a -24.028,24.028 0 0 1 24,24 v 80 a -8.009,8.009 0 0 1 -8,8 h -72 v -40 a -40.045,40.045 0 0 0 -40,-40 z"
     id="path18"
     style="fill:#412643;fill-opacity:1" />
  <path
     d="m 368.00009,312 v -80 a -40.045,40.045 0 0 0 -40,-40 h -128 a -40.045,40.045 0 0 0 -40,40 v 8 h -16 v -96 h 32 v 8 a -24,24 0 0 0 48,0 v -8 h 80 v 8 a -24,24 0 0 0 48,0 v -8 h 32 v 279.61 c 0,4.626 -4.082,8.39 -9.1,8.39 h -6.9 v -40 a -40.045,40.045 0 0 0 -40,-40 h -56 v -16 h 72 a -24.028,24.028 0 0 0 24,-24 z"
     id="path20"
     style="fill:#412643;fill-opacity:1" />
  <path
     d="m 320.00009,152 v -24 h 16 v 24 a -8,8 0 0 1 -16,0 z"
     id="path22"
     style="fill:#412643;fill-opacity:1" />
  <path
     d="m 128.00009,288 v 14.33 c 0,0.564 -0.034,1.119 -0.071,1.674 a -7.993,7.993 0 0 0 -5.5,13.733 -23.965,23.965 0 0 1 -13.229,8.024 L 96.000094,328.7 V 256 h 31.999996 v 16 a -8,8 0 0 0 0,16 z"
     id="path24"
     style="fill:#412643;fill-opacity:1" />
  <path
     d="M 128.00009,240 H 96.000094 v -8 a -24.027,24.027 0 0 1 23.999996,-24 h 8 z"
     id="path26"
     style="fill:#412643;fill-opacity:1" />
  <path
     d="m 352.00009,392 v 40 h -80 v -64 h 56 a -24.027,24.027 0 0 1 24,24 z"
     id="path28"
     style="fill:#412643;fill-opacity:1" />
  <path
     d="M 66.510094,416 H 256.00009 v 32 h -16 v -8 a -8,8 0 0 0 -16,0 v 8 h -16 v -8 a -8,8 0 0 0 -16,0 v 8 h -16 v -8 a -8,8 0 0 0 -8,-8 h -64 a -8,8 0 0 0 -7.999996,8 v 8 h -16 v -8 a -8,8 0 0 0 -16,0 v 8 h -8 a -56.8,56.8 0 0 1 -8,-0.587 V 440 a -8,8 0 0 0 -16,0 v 2.622 A -55.878,55.878 0 0 1 9.4435459e-5,392 v -6.33 A -24.213,24.213 0 0 1 0.67209444,379.986 L 15.593094,394.907 a -71.536,71.536 0 0 0 50.917,21.093 z"
     id="path30"
     style="fill:#412643;fill-opacity:1" />
  <path
     d="m 139.93809,320 h 36.062 a -8,8 0 0 0 0,-16 h -32.036 c 0.023,-0.554 0.036,-1.111 0.036,-1.67 V 288 h 32 a -8,8 0 0 0 0,-16 h -32 v -16 h 88 a -24.028,24.028 0 0 1 24,24 v 73.754 l -57.94,14.485 a -8,8 0 0 0 -6.06,7.761 v 24 H 66.510094 a -55.643,55.643 0 0 1 -39.6,-16.407 L 9.7250944,366.408 a -24.089,24.089 0 0 1 9.0809996,-4.17 L 112.67909,341.379 A -39.8,39.8 0 0 0 139.93809,320 Z"
     id="path32"
     style="fill:#412643;fill-opacity:1" />
  <path
     d="m 432.00009,232 v 8 h -32 v -32 h 8 a -24.028,24.028 0 0 1 24,24 z"
     id="path34"
     style="fill:#412643;fill-opacity:1" />
  <path
     d="m 432.00009,392 a -8.009,8.009 0 0 1 -8,8 h -24 V 256 h 32 z"
     id="path36"
     style="fill:#412643;fill-opacity:1" />
  <path
     d="m 352.00009,392 v 40 h -80 v -64 h 56 a -24.027,24.027 0 0 1 24,24 z"
     id="path943"
     style="fill:#412643;fill-opacity:1" />
</svg>
