<?xml version="1.0" encoding="UTF-8" standalone="no"?>
<svg
   viewBox="0 0 62.128857 37.097355"
   x="0px"
   y="0px"
   version="1.1"
   id="svg8"
   sodipodi:docname="noun_Bike_4279555.svg"
   width="62.128857"
   height="37.097355"
   inkscape:version="1.1 (c68e22c387, 2021-05-23)"
   xmlns:inkscape="http://www.inkscape.org/namespaces/inkscape"
   xmlns:sodipodi="http://sodipodi.sourceforge.net/DTD/sodipodi-0.dtd"
   xmlns="http://www.w3.org/2000/svg"
   xmlns:svg="http://www.w3.org/2000/svg">
  <defs
     id="defs12" />
  <sodipodi:namedview
     id="namedview10"
     pagecolor="#ffffff"
     bordercolor="#666666"
     borderopacity="1.0"
     inkscape:pageshadow="2"
     inkscape:pageopacity="0.0"
     inkscape:pagecheckerboard="0"
     showgrid="false"
     fit-margin-top="0"
     fit-margin-left="0"
     fit-margin-right="0"
     fit-margin-bottom="0"
     inkscape:zoom="10.3"
     inkscape:cx="31.116505"
     inkscape:cy="10.533981"
     inkscape:window-width="1920"
     inkscape:window-height="1013"
     inkscape:window-x="-9"
     inkscape:window-y="-9"
     inkscape:window-maximized="1"
     inkscape:current-layer="svg8" />
  <path
     d="m 51.135854,15 a 10.9,10.9 0 0 0 -4.695,1.077 l -0.028,-0.024 c -0.124,-0.1 -0.241,-0.194 -0.343,-0.27 a 27.46,27.46 0 0 0 -4.865,-2.894 l 2.013,-4.9 a 2.008,2.008 0 0 0 1.518,-0.789 l 1.2,-1.6 a 1,1 0 0 0 -0.8,-1.6 h -6.59 a 1,1 0 0 0 -0.7,1.71 l 1.7,1.7 a 2.006,2.006 0 0 0 1.42,0.59 h 0.088 l -1.683,4.087 A 48.4,48.4 0 0 0 23.110854,9 c 0.6,-1.591 0.955,-2.628 0.973,-2.682 A 1,1 0 0 0 23.135854,5 h -1.5 a 1.5,1.5 0 0 1 0,-3 h 1.5 a 1,1 0 0 0 1,1 h 4 a 1,1 0 0 0 1,-1 V 1 a 1,1 0 0 0 -1,-1 h -6.5 a 3.5,3.5 0 1 0 0,7 h 0.086 c -0.247,0.679 -0.585,1.583 -1,2.625 -0.431,1.095 -0.847,2.092 -1.277,3.059 -0.627,1.451 -1.329,2.929 -2.031,4.286 a 11.065,11.065 0 1 0 1.566,1.33 l 0.133,-0.244 c 0.612,-1.177 1.211,-2.442 1.775,-3.7 2.474,1.02 9.814,4.493 13.255,10.925 a 1.98,1.98 0 0 0 -0.007,3.44 V 32 h -1 a 1,1 0 0 0 0,2 h 4 a 1,1 0 0 0 0,-2 h -1 v -3 h 4.41 a 11,11 0 1 0 10.59,-14 z m -32,11 a 8.022,8.022 0 1 1 -3.2,-6.392 l -0.079,0.13 a 24.872,24.872 0 0 1 -2.977,3.84 2.962,2.962 0 0 0 -1.744,-0.578 3,3 0 1 0 3,3 2.958,2.958 0 0 0 -0.1,-0.746 26.8,26.8 0 0 0 3.364,-4.22 7.952,7.952 0 0 1 1.736,4.966 z m 2.559,-13.477 q 0.316,-0.739 0.635,-1.533 a 46.774,46.774 0 0 1 16.28,2.947 l -3.637,8.833 c -3.948,-5.925 -10.737,-9.188 -13.278,-10.247 z m 18.561,11.837 -3.98,0.5 4.167,-10.118 a 25.845,25.845 0 0 1 4.139,2.439 10.933,10.933 0 0 0 -4.326,7.179 z m 6.649,-5.142 a 19.739,19.739 0 0 1 2.249,2.731 c 0.287,0.426 0.531,0.821 0.756,1.206 l -6.514,0.815 a 8,8 0 0 1 3.509,-4.752 z m 4.231,14.782 a 8.008,8.008 0 0 1 -7.42,-5 h 7.42 a 3,3 0 0 0 1.1,-5.785 c -0.406,-0.739 -0.833,-1.505 -1.428,-2.386 a 21.537,21.537 0 0 0 -1.969,-2.489 8,8 0 1 1 2.297,15.66 z"
     id="path2"
     style="fill:#412643;fill-opacity:1" />
</svg>
