<?xml version="1.0" encoding="UTF-8" standalone="no"?>
<svg
   version="1.1"
   id="svg2"
   xml:space="preserve"
   width="1021.8457"
   height="662.07684"
   viewBox="0 0 1021.8456 662.07681"
   sodipodi:docname="panorama.svg"
   inkscape:version="1.1 (c68e22c387, 2021-05-23)"
   xmlns:inkscape="http://www.inkscape.org/namespaces/inkscape"
   xmlns:sodipodi="http://sodipodi.sourceforge.net/DTD/sodipodi-0.dtd"
   xmlns:xlink="http://www.w3.org/1999/xlink"
   xmlns="http://www.w3.org/2000/svg"
   xmlns:svg="http://www.w3.org/2000/svg"
   xmlns:rdf="http://www.w3.org/1999/02/22-rdf-syntax-ns#"
   xmlns:cc="http://creativecommons.org/ns#"
   xmlns:dc="http://purl.org/dc/elements/1.1/"><metadata
     id="metadata8"><rdf:RDF><cc:Work
         rdf:about=""><dc:format>image/svg+xml</dc:format><dc:type
           rdf:resource="http://purl.org/dc/dcmitype/StillImage" /></cc:Work></rdf:RDF></metadata><defs
     id="defs6"><linearGradient
       inkscape:collect="always"
       id="linearGradient957"><stop
         style="stop-color:#e5a8d3;stop-opacity:1"
         offset="0"
         id="stop953" /><stop
         style="stop-color:#fcebe9;stop-opacity:0;"
         offset="1"
         id="stop955" /></linearGradient><clipPath
       clipPathUnits="userSpaceOnUse"
       id="clipPath22"><path
         d="M 18.924,56.631 H 781.075 V 282.692 H 18.924 Z"
         id="path20" /></clipPath><clipPath
       clipPathUnits="userSpaceOnUse"
       id="clipPath46"><path
         d="M 180.773,210.76 H 739.699 V 116.564 H 180.773 Z"
         id="path44" /></clipPath><linearGradient
       x1="0"
       y1="0"
       x2="1"
       y2="0"
       gradientUnits="userSpaceOnUse"
       gradientTransform="matrix(-45.721718,121.6858,121.6858,45.721718,493.38388,60.897232)"
       spreadMethod="pad"
       id="linearGradient56"><stop
         style="stop-opacity:1;stop-color:#ffffff"
         offset="0"
         id="stop52" /><stop
         style="stop-opacity:1;stop-color:#fff8e1"
         offset="1"
         id="stop54" /></linearGradient><linearGradient
       inkscape:collect="always"
       xlink:href="#linearGradient957"
       id="linearGradient959"
       x1="440.64801"
       y1="72.002296"
       x2="487.87109"
       y2="654.61255"
       gradientUnits="userSpaceOnUse"
       gradientTransform="matrix(1.0112595,0,0,0.68706307,-0.21307346,17.721611)" /></defs><sodipodi:namedview
     pagecolor="#ffffff"
     bordercolor="#666666"
     borderopacity="1"
     objecttolerance="10"
     gridtolerance="10"
     guidetolerance="10"
     inkscape:pageopacity="0"
     inkscape:pageshadow="2"
     inkscape:window-width="1920"
     inkscape:window-height="1013"
     id="namedview4"
     inkscape:pagecheckerboard="0"
     showgrid="false"
     inkscape:snap-global="false"
     fit-margin-top="0"
     fit-margin-left="0"
     fit-margin-right="0"
     fit-margin-bottom="0"
     inkscape:zoom="1.0924799"
     inkscape:cx="751.95892"
     inkscape:cy="707.10684"
     inkscape:window-x="-9"
     inkscape:window-y="-9"
     inkscape:window-maximized="1"
     inkscape:current-layer="g10" /><g
     id="g10"
     inkscape:groupmode="layer"
     inkscape:label="12686-NOYLFK"
     transform="matrix(1.3333333,0,0,-1.3333333,-25.231999,796.92772)"><path
       id="path14"
       style="fill:url(#linearGradient959);fill-opacity:1;fill-rule:nonzero;stroke:none;stroke-width:0.999998"
       d="M 18.924001,512.78855 V 102.59421 H 789.65635 v 410.19434 z" /><path
       d="m 210.9208,278.3905 c -5.614,0.638 -17.728,1.448 -22.066,-0.773 -2.896,-1.484 -5.44,-4.981 -7.918,-5.404 -2.402,-0.408 -15.913,1.207 -10.183,-2.702 -13.506,9.214 -11.34,-10.803 -18.667,-10.803 -4.738,0 -37.761,-0.201 -34.513,-4.631 -2.861,0 -33.628,-6.993 -33.378,-7.333 -4.071,-1.389 -8.431,-1.546 -13.578,-1.546 -8.399,0 8.635,-1.943 12.448,-2.315 15.423,-1.502 31.541,-1.542 48.085,-1.542 61.855,0 124.906,1.542 184.43,1.542 -9.8,3.34 -20.646,3.475 -29.984,7.719 -8.359,3.803 -3.742,8.7 -13.013,10.808 -13.688,3.11 -16.051,-4.249 -25.455,-4.249 -2.518,0 -6.224,0.125 -6.224,1.933 0,6.046 -8.933,13.342 -15.842,15.435 -6.85,2.078 -7.353,-5.907 -7.353,-1.929 0,3.828 -2.981,3.19 -6.789,5.79"
       style="fill:#ffffff;fill-opacity:1;fill-rule:evenodd;stroke:none"
       id="path26" /><path
       id="path30"
       style="fill:#955e82;fill-opacity:1;fill-rule:nonzero;stroke:none;stroke-width:1.33333"
       d="m 344.01758,638.49219 c -20.22933,0 -38.62283,40.25361 -57.29883,39.49023 -18.67467,-0.76577 -14.32433,-24.83116 -38.23633,-24.85156 -23.90933,-0.0204 -35.28628,35.70125 -51.23828,42.00391 -15.95333,6.30505 -34.57387,18.34927 -52.2832,18.33593 -17.71334,-0.018 -61.129326,10.86173 -79.722659,10.26758 -18.597333,-0.58813 -43.413422,9.72662 -59.3574216,10.86328 -1.076751,0.0767 -2.1772914,0.11311 -3.2910156,0.125 v 85.42383 H 1021.8457 V 704.20898 c -4.3987,-2.29972 -8.9226,-4.72969 -13.4199,-7.23828 -24.76802,-13.80437 -40.74361,1.6873 -45.18361,8.00196 -4.43867,6.31344 -17.7269,8.02691 -29.24024,8.58984 -11.512,0.56532 -25.73391,25.82438 -39.03125,33.2793 -13.30133,7.45372 -75.27186,-1.21287 -97.39453,-9.84766 -22.12266,-8.63239 -59.31165,-9.81088 -71.70898,-9.82422 -12.4,-0.0108 -30.9947,-1.74982 -48.69336,-8.08008 -17.69733,-6.33265 -41.61078,-5.78097 -57.55078,-5.79296 -15.93867,-0.0132 -31.39259,-6.14184 -44.66993,-8.45118 -13.27999,-2.30692 -31.99876,1.595 -51.49609,7.32032 -19.49066,5.7277 -38.80082,-20.35952 -58.27148,-24.39844 -19.47467,-4.03534 -33.53041,6.13334 -50.06641,-5.08203 -16.53467,-11.21539 -52.80823,-44.19336 -71.10156,-44.19336 z"
       transform="matrix(0.75000002,0,0,-0.75000002,18.924,720.55614)" /><path
       style="fill:#955e82;fill-opacity:1;stroke:none;stroke-width:0.75px;stroke-linecap:butt;stroke-linejoin:miter;stroke-opacity:1"
       d="m 628.14737,200.12294 c 13.07356,2.10837 21.31506,0.99537 43.20388,8.98058 11.6994,6.85255 12.04632,0.60609 16.01943,-1.45631 17.01617,-14.29657 34.23716,-28.89436 40.53398,-27.42718 l -43.20389,-40.04855 z"
       id="path885"
       sodipodi:nodetypes="cccccc" /><path
       id="path34"
       style="fill:#754472;fill-opacity:1;fill-rule:nonzero;stroke:none;stroke-width:1.33333"
       d="m 716.3457,630.57422 c -44.86636,15.01319 -129.13528,85.07575 -168.91601,86.43359 -21.07283,21.36727 -27.05073,24.88089 -58.49024,15.02149 -19.496,-6.36267 -38.08265,-2.51648 -51.36133,0.0488 -13.27866,2.56401 -33.61788,19.1709 -49.56054,19.18555 -15.93733,0.0133 -39.8475,-0.60107 -57.54883,6.4336 -17.69733,7.032 -36.29079,8.96456 -48.68945,8.97656 -12.39867,0.0147 -49.59156,1.32473 -71.71289,10.91406 -22.12134,9.592 -84.09257,19.2175 -97.39258,10.9375 -13.297333,-8.28132 -27.519872,-36.3388 -39.033205,-36.9668 -11.513333,-0.62532 -24.800234,-2.52961 -29.240234,-9.54297 -4.354125,-6.87691 -19.81319,-23.47256 -43.75390662,-9.67578 V 825.8906 L 1022.1235,825.97151 V 773.6805 c -6.1123,1.04108 -14.8643,1.68216 -20.3618,1.24721 C 985.81909,773.66505 961.00296,762.206 942.4043,762.85936 904.46054,786.12025 810.70114,627.99017 716.3457,630.57422 Z"
       transform="matrix(0.75000002,0,0,-0.75000002,18.924,720.55614)"
       sodipodi:nodetypes="cccccccccccccccccc" /><path
       style="fill:#754472;fill-opacity:1;stroke:none;stroke-width:0.75px;stroke-linecap:butt;stroke-linejoin:miter;stroke-opacity:1"
       d="m 657.32655,179.04389 c 10.06527,-3.11146 37.17019,-3.97474 46.06354,2.87516 5.98706,2.10356 11.97411,4.20712 17.96117,6.31068 12.48675,5.31313 15.39305,-1.34931 17.71845,-8.73786 9.79155,-21.19495 32.63306,-12.347 46.49676,-28.30633 l -0.0619,-21.79914 -71.43487,7.1443 c -12.62136,9.70874 -166.87511,43.63563 -56.74315,42.51319 z"
       id="path2243"
       sodipodi:nodetypes="cccccccc" /><path
       id="path38"
       style="fill:#644266;fill-opacity:1;fill-rule:evenodd;stroke:none;stroke-width:0.999998"
       d="m 231.76434,219.2529 c -0.231,-0.052 0.223,-0.39517 0,-0.49219 -1.44,-0.68898 -3.48662,-1.03204 -5.07862,-1.62304 -0.835,-0.292 -1.36069,-1.22665 -2.11669,-1.57763 -1.52001,-0.636 -3.71625,-0.78678 -5.15625,-1.57179 -1.512,-0.83799 -2.72197,-1.52523 -4.31397,-2.11523 -0.604,-0.195 -1.8138,-0.29938 -2.1958,-0.54639 -0.907,-0.688 -0.30227,-1.07812 -2.19727,-1.07812 -4.998,0 -10.14704,-0.10248 -14.54003,0.54053 -4.242,0.636 -5.75496,-0.49525 -8.02296,-1.57325 -1.218,-0.545 -0.90681,-0.20019 -2.19579,-0.49218 0,0 -2.27635,-2.16861 -2.88135,-2.66163 -0.979,-0.68799 -2.49852,-2.55795 -3.70752,-3.14794 -1.441,-0.741 -4.39437,-2.41023 -5.75538,-2.65723 -1.217,-0.247 -1.5198,-0.0519 -2.19579,-0.54492 -8.787,-6.297 -20.29596,-12.19918 -30.52296,-18.45118 -3.557,-2.11599 -7.94955,-4.82223 -12.41454,-6.30321 -4.242,-1.37601 -8.33325,-2.6034 -12.34425,-4.23341 -8.06395,-3.18811 -61.625912,-16.78325 -96.716307,-38.84765 V 111.0654 H 771.2473 v 10.28027 l -0.13478,0.0718 c -11.31005,6.07599 -37.7326,12.73652 -44.1636,18.54052 l -8.06982,5.49902 c -5.228,0 -11.42033,6.67449 -16.57031,7.16748 -4.29,0.39 -11.92141,1.15619 -16.33741,1.51319 -8.365,0.669 -11.94699,10.64116 -19.83399,11.86817 -5.523,0.837 -12.41516,2.50419 -17.49316,4.1792 -2.65,0.88999 -6.20713,1.0327 -8.78613,2.11669 -7.799,3.447 -17.71601,3.69394 -24.68702,-0.53906 -3.70899,-2.265 -7.88001,-4.97227 -12.41601,-6.84229 -2.881,-1.129 -6.28703,-2.60933 -8.70703,-3.69433 -1.058,-0.487 -2.57821,-0.48625 -3.63721,-1.03125 -0.83599,-0.493 -1.28802,-1.12905 -2.12402,-1.62305 -1.281,-0.636 -3.10406,-0.88336 -4.39307,-1.52637 -0.222,-0.097 0.159,-0.44106 0,-0.53906 -1.886,-0.934 -5.06977,-1.82295 -6.50977,-3.14795 -1.28199,-1.136 -0.23085,-1.92068 -0.75585,-3.20068 -0.072,-0.149 -0.60633,0.15 -0.75733,0 -0.605,-0.642 -0.68394,-0.59099 -1.43994,-1.08398 -0.151,-0.097 0.152,-0.39666 0,-0.49366 -3.486,-1.818 -10.2179,-2.25931 -15.2959,-1.57031 -1.441,0.24 -2.4991,0.53898 -3.5581,1.08399 -0.231,0.045 0.072,0.38832 0,0.48632 -3.103,1.48 -7.04454,2.26634 -10.22754,3.69434 -5.60301,2.506 -10.83131,4.92128 -16.73731,6.84228 -6.509,2.162 -13.70372,3.53806 -20.36572,5.31006 -1.44,0.34401 -2.95207,0.19566 -4.39306,0.49365 -1.36101,0.34401 -2.26821,1.27905 -3.63721,1.62306 -1.44,0.29898 -3.02397,0.19506 -4.31397,0.53906 -1.289,0.247 -2.42652,0.83757 -3.70752,1.03857 -1.369,0.246 -2.96105,0.19465 -4.39307,0.49365 -4.545,1.181 -8.63509,2.80408 -13.1001,4.22608 -13.25899,4.337 -26.20865,10.14214 -38.47265,15.84814 -0.908,0.351 -2.12366,0.14919 -2.95166,0.49219 -0.915,0.442 -1.29027,1.18164 -2.19726,1.57764 -0.462,0.195 -1.05795,-0.201 -1.43995,0 -1.138,0.493 -1.89434,0.93577 -2.88134,1.57177 -3.327,2.071 -4.99821,4.57629 -7.34619,6.84229 -0.294,0.344 -1.12938,0.19506 -1.35938,0.53906 -1.059,1.084 -0.90814,2.66309 -2.95312,2.66309 -4.01202,0 -6.74122,-0.7421 -10.22022,-1.5791 -3.485,-0.88302 -7.57662,-1.12797 -10.91163,-2.06397 -3.708,-1.136 -7.79812,-1.57776 -11.57812,-2.65576 -4.473,-1.331 -6.21638,-3.2516 -11.58838,-3.74561 -4.019,-0.344 -8.41234,0 -12.42334,0 h -2.87402 c -0.23,-0.045 0.223,-0.44279 0,-0.48779 -1.137,-0.448 -2.42721,-0.24592 -3.63721,-0.54492 -0.302,-0.046 0.223,-0.44206 0,-0.53906 -0.755,-0.29801 -1.3598,-0.34406 -2.1958,-0.53906 -2.427,-0.597 -3.70809,-0.25293 -6.51709,-0.54493 -1.13,-0.098 -2.19788,-0.49365 -3.62988,-0.49365 -9.018,0 -16.28372,1.2797 -24.01172,2.1167 -6.128,0.59 -9.08096,2.66232 -13.85596,4.77832 -1.058,0.442 -3.18307,0.73372 -4.39307,1.03271 -4.091,1.12901 -8.25325,2.75201 -12.34423,3.68702 -6.58902,1.47999 -10.75085,2.61105 -16.73585,4.72704 -1.513,0.591 -3.62938,0.49399 -5.15038,1.08399 -3.40602,1.377 -6.74098,3.14874 -10.14698,4.71972 -0.677,0.29901 -1.5108,0.24739 -2.1958,0.54639 -0.525,0.246 -0.82762,0.78426 -1.43262,1.03125 -2.499,0.98001 -5.75427,1.57776 -8.03027,2.65577 -2.348,1.12999 -4.09077,2.80387 -6.50977,3.69286 -0.38199,0.14901 -2.50012,0.14901 -2.95312,0 z" /><g
       id="g64"
       style="opacity:0.0599976"
       transform="translate(0,7.5)"><g
         id="g62"><g
           id="g60"><path
             d="m 209.886,174.963 -1.846,0.051 -13.482,3.052 c -3.359,0.76 -6.765,0.636 -10.148,2.116 h -2.196 l -0.677,1.085 h -0.764 v 2.064 l 2.882,3.201 c 1.671,1.862 4.902,2.993 7.345,4.232 0.629,0.455 0.199,0.825 0.685,1.526 0.485,0.136 1.639,0.299 2.332,0.091 -0.136,0.175 0.382,0.812 0.541,0.994 l 3.637,3.148 c -0.446,1.181 -1.902,1.883 -4.314,2.116 -0.955,0.027 -1.679,0.215 -2.196,0.539 -0.645,0.636 -0.685,1.377 -0.685,2.117 0.271,0.532 3.192,0.662 12.344,0 2.165,-0.189 3.303,0.09 4.48,0.35 l 2.07,-0.876 c -2.65,-2.707 -6.263,-5.187 -10.943,-7.394 l -2.873,-1.085 c 0.199,-0.227 0.23,-0.415 0,-0.539 v -0.987 l 1.361,-1.623 c -1.035,-1.934 -2.101,-3.654 -0.82,-5.135 0.43,-0.493 1.656,-0.655 2.332,-0.675 l 0.756,-2.064 c 0.891,-0.13 1.791,-0.274 2.682,-1.253 0.565,-1.494 2.61,-2.487 4.513,-3.526 l 1.138,0.104 z m 163.335,-9.005 c -0.207,-0.013 -0.35,-0.019 -0.406,0 -0.987,0.396 1.894,6.551 0.756,7.336 -0.684,0.494 -5.754,0 -7.266,0 -6.001,0 -11.492,-0.474 -17.047,-1.136 l -0.375,-0.045 c -2.419,-0.299 -4.846,-0.591 -7.345,-0.89 -1.059,-0.097 -1.894,-0.247 -2.882,-0.494 -0.222,-0.097 0.239,-0.486 0,-0.538 h -4.313 c -1.735,-0.292 -1.281,-0.539 -3.024,-0.539 -4.242,0 0.756,2.065 0.756,2.065 0.533,1.181 0.302,1.136 0.756,2.116 0.071,0.194 1.138,0.149 0.756,1.084 -0.072,0.143 -0.605,-0.149 -0.756,0 -1.743,1.87 -5.15,2.558 -6.59,4.772 -0.605,0.149 -1.512,-0.195 -2.117,0 -0.302,0.052 0.231,0.441 0,0.493 -0.684,0.195 -1.592,-0.149 -2.276,0 -0.374,0.15 -0.223,0.442 -0.605,0.539 h -2.268 c -0.231,0.052 0.302,0.494 0,0.546 -1.138,0.246 -3.104,0.343 -3.566,0.493 -0.676,0.143 -1.583,-0.201 -2.268,0 -0.151,0.045 0.231,0.39 0,0.487 h -0.684 c 0,1.922 8.563,-0.883 9.391,-0.98 1.743,-0.299 4.17,0 5.913,0 5.372,-0.319 10.673,-0.332 15.973,0 1.966,-0.195 3.995,-0.092 6.017,0 h 1.257 c 0.303,0.045 -0.23,0.441 0,0.493 h 1.512 c 0.152,0.045 -0.302,0.441 0,0.487 0.375,0.149 1.059,-0.241 1.362,0 0.381,0.299 -0.303,0.837 0,1.084 0.381,0.247 1.058,-0.045 1.511,0 0.995,0.097 1.895,0.396 2.882,0.545 2.419,0 8.332,0.591 10.902,0 5.452,-1.33 5.302,-10.978 6.591,-14.224 0.151,-0.344 -0.374,-0.785 0,-1.039 1.209,-1.13 11.054,2.565 9.47,-1.078 -0.533,-1.084 -3.485,-0.298 -5.077,-0.544 -0.796,-0.085 -5.476,-0.923 -6.94,-1.033 m -22.969,-26.377 c -2.403,0.11 -4.815,0.272 -7.219,0.532 -2.817,0.298 -5.491,0.864 -8.69,1.045 -8.174,0.442 -16.658,0 -24.839,0 h -14.54 c -1.433,-0.104 -2.269,-1.084 -4.314,-0.493 -0.231,0 0.223,0.441 0,0.493 -1.138,0.24 -2.578,-0.299 -3.637,0 -0.303,0.046 0.151,0.39 0,0.493 -2.117,1.52 -3.486,3.292 -6.582,4.772 -0.382,0.195 -0.987,-0.097 -1.44,0 -1.512,0.487 -2.348,0.247 -3.638,0.539 -0.23,0.052 0.223,0.493 0,0.546 -0.604,0.097 -3.788,-0.053 -1.44,0.538 2.73,0.643 8.181,0 10.903,0 h 13.785 c 2.65,0 6.208,-0.493 8.786,0 2.571,0.442 -2.276,2.954 -2.952,3.642 -2.953,3.246 -2.73,7.629 -5.834,10.53 -3.709,3.642 -11.962,2.214 -18.17,1.085 l -2.204,-1.085 c -0.908,-0.194 -1.966,0.248 -2.874,0 -4.997,-1.084 -9.764,-2.018 -15.296,-1.032 -3.183,0.591 -5.754,1.87 -8.715,2.655 -4.464,1.137 -10.219,1.578 -14.532,3.15 -3.788,1.382 -9.542,3.005 -12.344,0 -0.915,-0.936 -6.287,-2.604 -8.101,-3.15 -0.916,-0.292 -5.954,-0.369 -8.525,-0.519 -0.485,0.143 -5.085,-0.779 -5.34,-0.655 -1.058,0.519 3.916,1.999 5.532,2.947 3.939,2.707 12.566,5.953 14.158,6.641 0.454,0.202 1.059,-0.194 1.52,0 0.446,0.254 0.223,0.793 0.756,1.039 0.303,0.247 0.979,-0.149 1.361,0 2.197,0.98 4.465,1.13 6.59,2.162 0.828,0.344 1.361,1.233 2.197,1.578 h 1.44 c 2.34,0.591 4.536,0.837 7.266,1.032 1.664,0.097 10.904,-0.292 10.904,1.623 0,1.084 -0.836,0.591 -1.441,1.032 -0.374,0.299 -0.828,1.136 -1.441,1.526 -0.222,0.201 -1.281,0.396 -1.432,0.545 -0.533,0.539 -0.302,1.623 -0.756,2.117 -0.987,1.181 -3.414,2.557 -5.149,3.2 -1.672,0.636 -4.775,1.324 -2.882,1.571 3.788,0.493 7.872,-0.539 11.66,0 2.714,0.487 4.314,2.273 1.552,4.557 -2.785,2.305 -8.277,4.707 -8.659,5.078 -0.072,0.142 -2.205,0.259 -2.356,0.409 -2.65,1.967 -5.531,3.934 -8.022,5.758 -0.613,0.539 -0.684,1.623 -1.441,2.11 h -0.684 c -0.278,0.52 0.048,1.61 0.334,2.37 0.096,0.233 0.223,0.792 0.43,0.798 4.847,-2.35 7.577,-4.843 13.936,-6.154 3.637,-0.747 6.884,-3.259 10.099,-4.564 4.234,-1.727 8.364,-2.357 12.989,-4.064 0.732,-0.234 6.319,-1.377 11.595,-3.422 1.48,-0.571 2.133,-2.824 3.598,-3.447 2.53,-1.091 6.223,-0.188 8.412,-0.837 3.247,-0.962 4.528,-3.221 4.791,-3.363 0.605,-0.299 1.44,-0.15 2.196,-0.494 0.231,-0.149 0.454,-0.883 0.756,-1.084 1.823,-1.325 6.439,-4.032 7.195,-5.759 0.454,-0.785 0.159,-0.934 0,-1.084 -0.676,-1.525 1.592,-2.162 2.953,-2.655 4.624,-1.675 10.68,-3.052 15.981,-4.726 2.045,-0.585 3.867,-1.572 5.905,-2.116 1.894,-0.488 4.775,-0.734 6.438,-1.572 0.303,-0.097 1.138,-1.084 2.277,-0.539 0.151,0.098 -0.231,0.442 0,0.539 1.432,0.74 1.734,0.195 3.629,0.539 0.342,0.058 0.557,0.091 0.979,0.15 l 0.159,0.019 c 0.334,0.039 2.014,0.279 2.38,0.324 2.442,0.241 4.958,0.267 7.385,0 1.672,-0.149 5.38,-0.493 6.518,-1.032 4.011,-1.922 8.333,-5.018 12.416,-7.381 2.881,-1.675 3.708,-1.481 7.274,-2.116 0.222,-0.053 -0.303,-0.442 0,-0.546 1.21,-0.292 2.268,-0.344 3.558,-0.487 9.24,-1.383 18.63,-3.103 26.199,-5.81 2.045,-0.786 4.393,-1.916 7.274,-1.571 1.664,0.194 2.65,0.538 4.314,0.538 1.966,0 3.939,-0.467 5.73,-0.889 l 0.859,-0.195 c 8.103,-1.922 16.809,-3.688 25.444,-4.233 0.383,0 10.904,0.494 6.59,-1.078 -2.65,-0.74 -5.603,-0.986 -8.787,-0.986 -3.636,0 -8.634,-0.539 -11.659,0.493 -3.103,1.13 -4.623,2.655 -9.391,2.655 -0.915,0 -2.284,-0.006 -3.191,-0.006 -8.182,-0.403 -15.782,-1.5 -25.205,0.5 h -3.637 c -1.966,0.292 -4.091,1.181 -5.834,1.623 -3.351,0.733 -6.104,1.071 -8.34,1.052 l 3.262,-1.598 c 2.659,-0.882 5.914,-2.259 8.031,-3.194 1.368,-0.175 3.565,-0.149 5.077,-1.032 2.571,-0.188 2.722,-0.909 4.394,-1.032 -6.057,0 -12.273,-0.299 -18.099,0 -2.347,0.142 -5.3,0.539 -8.101,0.539 -1.903,0 -7.346,0.389 -9.471,0 -2.046,-0.448 -2.419,-1.084 -5.07,-1.084 z m 194.239,-1.526 c -4.999,0 -10.681,1.674 -15.297,2.61 -2.269,0.389 -3.104,0.292 -5.07,0.986 -3.486,1.273 -7.807,3.052 -11.667,3.733 -1.131,0.202 -2.419,-0.194 -3.629,0 -8.866,1.286 -17.048,5.765 -26.208,5.765 -0.135,0 -0.167,-3.635 -2.077,-4.453 -0.39,-0.169 -2.993,1.616 -3.391,1.441 -1.965,-0.857 -3.335,-0.746 -3.923,-1.175 -0.303,-0.195 -2.499,0 -2.953,0 0.311,0.247 2.046,0.987 2.197,1.578 0.23,1.077 -0.525,1.967 0.756,2.609 0.708,0.409 3.709,1.013 4.982,2.597 -2.754,0.429 -9.614,1.065 -10.052,1.143 -3.334,0.442 -5.603,1.525 -8.786,2.116 -2.125,0.39 -5.683,-0.052 -8.03,0.487 -0.677,0.202 -3.104,1.974 -3.63,2.168 -0.986,0.293 -1.822,0.293 -2.881,0.494 -4.544,0.935 -8.937,1.915 -13.553,2.61 l -0.31,0.032 c -5.007,0.689 -10.227,1.032 -16.292,0.539 -3.477,-0.292 -8.245,-0.883 -11.659,-1.571 -0.756,-0.195 -3.334,-1.279 -4.314,-1.032 -0.509,0.136 -4.838,-0.565 -4.998,-0.448 2.65,1.097 6.041,1.727 6.359,1.974 0.533,0.344 7.617,1.61 8.142,1.856 2.205,2.565 5.969,3.103 7.027,3.343 0.415,0.105 2.85,2.721 3.009,2.773 2.571,0.591 3.557,0.935 5.149,2.064 -2.276,0 -3.94,0.545 -6.518,0.545 0.533,0.39 2.093,1.552 2.77,2.247 0.342,0.35 -0.374,0.026 -1.234,1.922 -0.271,0.59 -1.719,1.655 -1.838,2.343 -0.073,0.429 2.307,2.104 2.204,2.5 -0.382,1.5 -1.799,2.836 -1.902,3.09 -0.454,0.889 -2.197,7.089 -2.197,7.927 l 2.412,-1.837 1.615,0.201 c 1.09,-0.065 1.648,-2.162 2.133,-4.59 2.125,-2.902 4.258,-4.239 6.383,-5.33 1.257,0.292 2.523,0.279 3.78,0.156 2.181,-0.987 2.905,-1.968 3.208,-2.954 l 3.558,-0.312 c 4.011,-0.389 2.872,-6.018 7.106,-8.485 3.892,-1.013 8.174,2.292 12.264,0.546 l 10.315,-4.746 c 3.207,-0.857 7.529,-1.208 9.399,-2.338 1.87,-2.415 3.741,-3.246 5.611,-3.733 l 6.748,-0.324 c 0.152,-0.149 -0.301,-0.493 0,-0.545 2.348,-0.591 4.315,-1.624 6.591,-2.117 1.742,-0.442 2.419,-0.046 4.313,-0.538 0.231,-0.053 -0.231,-0.442 0,-0.546 0.398,-0.084 4.083,-1.545 5.276,-2.389 2.253,-1.584 2.611,-3.201 4.195,-4.941 0.072,-0.149 0.525,0.097 0.756,0 0.828,-0.642 1.488,-1.051 2.626,-1.35 2.874,-0.688 6.232,0.954 8.962,1.35 2.117,0.299 4.544,-0.396 6.582,0 0.612,0.097 3.867,0.195 4.393,0 1.066,-0.097 6.446,-3.986 6.518,-4.772 2.037,-1.973 3.103,-3.791 5.07,-5.219 m 195.208,-21.087 c -8.937,0.643 -13.689,7.356 -22.698,7.356 -4.616,0 -8.858,1.526 -13.179,2.117 -2.348,0.343 -3.104,0.052 -4.998,0.538 -0.716,0.033 -12.018,6.973 -14.796,13.335 0.351,-0.182 14.119,-5.713 19.086,-5.324 2.586,-1.136 3.637,-0.889 5.785,-1.168 0,1.019 -13.967,6.758 -21.862,9.466 -2.029,0.7 -3.685,1.129 -4.632,1.129 -3.812,2.22 -5.873,-2.519 -4.027,-5.823 0,-0.883 -0.374,-2.311 0,-3.195 0.152,-0.343 0.756,-0.149 0.756,-0.493 0,-1.084 -10.067,-0.785 -11.659,-0.539 -1.361,0.143 -6.208,1.864 -6.51,2.655 -0.112,0.202 0.669,2.942 -3.152,5.064 0.008,1.604 3.573,4.324 2.953,5.655 -0.86,1.831 -4.17,3.181 -5.905,4.954 -2.237,-0.033 -7.529,-3.039 -7.76,-3.078 -1.663,-0.194 -5.825,0.149 -5.825,-1.077 0,-0.15 0.676,-4.233 -1.521,-4.233 -0.151,0 0.23,0.441 0,0.539 -0.151,0.194 -1.281,0.344 -1.361,0.538 -0.605,0.695 -0.071,0.792 -1.512,1.039 -6.701,-2.409 -15.225,-6.044 -17.087,-5.161 -2.037,1.532 2.777,4.837 10.497,8.901 0.685,0.389 3.335,1.87 3.709,2.61 0.382,0.83 0.08,1.077 0.684,1.571 0.621,0.428 0.366,3.337 -1.87,5.421 -2.411,2.246 -6.837,3.745 -6.837,6.193 0.455,0 3.28,0.669 7.012,-0.539 2.841,-0.915 6.765,-2.831 7.29,-5.187 4.003,-1.474 10.307,-1.11 13.339,-1.11 9.232,0 9.081,-2.603 17.485,-4.129 2.34,-1.584 2.468,-4.155 6.662,-6.531 2.419,-1.364 7.401,-1.708 10.33,-2.759 4.894,-1.754 15.479,-1.214 17.453,-2.019 2.499,-1.02 5.842,-5.512 12.622,-8.57 4.067,-2.364 2.85,-5.512 6.033,-7.245 5.682,-3.084 12.948,-7.167 15.495,-10.901 M 619.27,116.566 c -0.056,-0.007 -0.128,0 -0.16,0.032 -2.881,1.182 -6.279,1.772 -9.112,3 -1.441,0.642 -2.881,1.629 -4.394,2.071 -0.604,0.195 -1.52,-0.15 -2.196,0 -0.151,0.045 -2.045,1.428 -2.873,2.655 -0.987,0.247 -2.579,0 -3.637,0 -1.441,0 -2.499,0.441 -2.953,0.539 -3.103,0.74 -10.76,-1.818 -7.958,2.662 0.684,0.98 1.368,2.064 2.196,2.655 0.534,0.344 1.441,0.201 1.441,0.987 0,0.74 -1.281,0.785 -2.197,0.538 -3.184,-0.687 -6.813,-0.538 -10.147,-0.538 -1.281,0 -8.556,-2.019 -8.779,-2.071 -2.196,-0.539 -4.623,0.35 -6.589,-0.539 -2.579,-1.13 -2.81,-0.591 -5.755,-1.032 -0.159,-0.052 -2.952,-1.084 -3.716,-0.546 -0.231,0.201 0,1.824 0,2.117 0,1.428 0.382,3.447 -0.677,4.187 -0.628,0.455 -0.199,2.882 -1.503,4.35 -1.226,1.376 -4.219,1.804 -4.251,1.948 -0.31,0.986 0.374,1.674 0.677,2.609 9.168,-2.753 14.62,-6.94 25.444,-8.907 0.533,-0.104 0.987,-0.396 1.512,-0.545 3.263,-0.689 5.077,1.084 7.959,1.084 3.405,0 6.056,0.545 10.218,0.545 4.696,0 5.078,-2.363 7.195,-4.726 1.209,-1.279 2.428,-1.525 3.637,-2.662 l 12.415,-7.868 c 0.534,-0.299 3.868,-1.773 4.393,-2.169 0.104,-0.064 -0.023,-0.233 -0.063,-0.357 -0.008,-0.006 -0.064,-0.019 -0.127,-0.019"
             style="fill:url(#linearGradient56);fill-rule:evenodd;stroke:none"
             id="path58" /></g></g></g><path
       d="m 631.3893,265.019 c -10.09,16.794 -28.423,2.362 -34.032,-6.984 -3.293,5.471 -8.609,5.823 -14.921,5.823 -5.695,0 -3.564,-9.058 -9.792,-6.989 -14,4.662 -20.606,-1.548 -33.103,-1.548 -11.46,0 -23.618,-0.392 -35.434,-0.392 -14.943,0 21.27,-2.691 27.044,-3.492 28.592,-3.964 62.17,-0.774 91.848,-0.774 12.683,0 24.743,0.387 37.297,0.387 1.856,0 11.705,-0.659 12.123,0.387 3.452,8.631 -15.392,3.884 -16.785,4.271 -0.08,0.022 -14.453,14.294 -14.453,7.371 0,2.402 -6.086,-1.143 -9.792,1.94"
       style="fill:#ffffff;fill-opacity:1;fill-rule:evenodd;stroke:none"
       id="path78" /><path
       id="rect19073"
       style="fill:#754472;stroke-width:3.8693"
       d="m 553.52015,284.19968 1.94174,-0.24272 1.98544,-47.12658 h -6.86512 z"
       sodipodi:nodetypes="ccccc" /><path
       style="fill:#754472;fill-opacity:1;stroke:none;stroke-width:0.75px;stroke-linecap:butt;stroke-linejoin:miter;stroke-opacity:1"
       d="m 559.70879,244.92232 v 13.34952 c 1.99969,4.83636 7.46896,4.49651 9.70875,0.24272 l -0.24272,-23.54369 z"
       id="path21643"
       sodipodi:nodetypes="ccccc" /><ellipse
       style="fill:#754472;fill-opacity:1;stroke:none;stroke-width:3.8693"
       id="path23018"
       cx="564.56317"
       cy="-263.36893"
       transform="scale(1,-1)"
       rx="2.4271846"
       ry="2.9126215" /><path
       style="fill:#754472;fill-opacity:1;stroke:none;stroke-width:0.75px;stroke-linecap:butt;stroke-linejoin:miter;stroke-opacity:1"
       d="m 561.35013,260.30573 -2.40279,2.74604 h 11.67071 l -2.91768,-3.08929 z"
       id="path23133"
       sodipodi:nodetypes="ccccc" /><path
       sodipodi:type="star"
       style="fill:#ffffff;fill-opacity:1;stroke:none;stroke-width:8.23582"
       id="path25647"
       inkscape:flatsided="false"
       sodipodi:sides="4"
       sodipodi:cx="165.69582"
       sodipodi:cy="289.96765"
       sodipodi:r1="19.717213"
       sodipodi:r2="9.8586063"
       sodipodi:arg1="0.40489179"
       sodipodi:arg2="1.19029"
       inkscape:rounded="-3.46945e-18"
       inkscape:randomized="0"
       d="m 183.81879,297.73464 -14.46158,1.3865 -11.42838,8.96949 -1.3865,-14.46158 -8.96949,-11.42839 14.46158,-1.3865 11.42839,-8.96949 1.38649,14.46159 z"
       transform="matrix(0.44695423,0,0,-0.49384086,6.6648714,497.82857)"
       inkscape:transform-center-x="-0.69578124"
       inkscape:transform-center-y="-2.557106" /><path
       sodipodi:type="star"
       style="fill:#ffffff;fill-opacity:1;stroke:none;stroke-width:8.23582"
       id="path25647-6"
       inkscape:flatsided="false"
       sodipodi:sides="4"
       sodipodi:cx="165.69582"
       sodipodi:cy="289.96765"
       sodipodi:r1="19.717213"
       sodipodi:r2="9.8586063"
       sodipodi:arg1="0.40489179"
       sodipodi:arg2="1.19029"
       inkscape:rounded="-3.46945e-18"
       inkscape:randomized="0"
       transform="matrix(0.40465229,0.1898015,0.20971215,-0.44710134,169.61145,554.48491)"
       inkscape:transform-center-x="0.4559585"
       inkscape:transform-center-y="-2.6105504"
       d="m 183.81879,297.73464 -14.46158,1.3865 -11.42838,8.96949 -1.3865,-14.46158 -8.96949,-11.42839 14.46158,-1.3865 11.42839,-8.96949 1.38649,14.46159 z" /><path
       sodipodi:type="star"
       style="fill:#ffffff;fill-opacity:1;stroke:none;stroke-width:8.23582"
       id="path25647-3"
       inkscape:flatsided="false"
       sodipodi:sides="4"
       sodipodi:cx="165.69582"
       sodipodi:cy="289.96765"
       sodipodi:r1="19.717213"
       sodipodi:r2="9.8586063"
       sodipodi:arg1="0.40489179"
       sodipodi:arg2="1.19029"
       inkscape:rounded="-3.46945e-18"
       inkscape:randomized="0"
       transform="matrix(0.44695423,0,0,-0.49384086,81.481343,731.94381)"
       inkscape:transform-center-x="-0.69578124"
       inkscape:transform-center-y="-2.557106"
       d="m 183.81879,297.73464 -14.46158,1.3865 -11.42838,8.96949 -1.3865,-14.46158 -8.96949,-11.42839 14.46158,-1.3865 11.42839,-8.96949 1.38649,14.46159 z" /><path
       sodipodi:type="star"
       style="fill:#ffffff;fill-opacity:1;stroke:none;stroke-width:8.23582"
       id="path25647-0"
       inkscape:flatsided="false"
       sodipodi:sides="4"
       sodipodi:cx="165.69582"
       sodipodi:cy="289.96765"
       sodipodi:r1="19.717213"
       sodipodi:r2="9.8586063"
       sodipodi:arg1="0.40489179"
       sodipodi:arg2="1.19029"
       inkscape:rounded="-3.46945e-18"
       inkscape:randomized="0"
       transform="matrix(0.44695423,0,0,-0.49384086,394.53059,384.56898)"
       inkscape:transform-center-x="-0.69578124"
       inkscape:transform-center-y="-2.557106"
       d="m 183.81879,297.73464 -14.46158,1.3865 -11.42838,8.96949 -1.3865,-14.46158 -8.96949,-11.42839 14.46158,-1.3865 11.42839,-8.96949 1.38649,14.46159 z" /><path
       sodipodi:type="star"
       style="fill:#ffffff;fill-opacity:1;stroke:none;stroke-width:8.23582"
       id="path25647-38"
       inkscape:flatsided="false"
       sodipodi:sides="4"
       sodipodi:cx="165.69582"
       sodipodi:cy="289.96765"
       sodipodi:r1="19.717213"
       sodipodi:r2="9.8586063"
       sodipodi:arg1="0.40489179"
       sodipodi:arg2="1.19029"
       inkscape:rounded="-3.46945e-18"
       inkscape:randomized="0"
       transform="matrix(0.31547424,0.31661347,0.34982702,-0.34856829,576.98611,422.97184)"
       inkscape:transform-center-x="1.3203051"
       inkscape:transform-center-y="-2.2977636"
       d="m 183.81879,297.73464 -14.46158,1.3865 -11.42838,8.96949 -1.3865,-14.46158 -8.96949,-11.42839 14.46158,-1.3865 11.42839,-8.96949 1.38649,14.46159 z" /></g></svg>
