<?xml version="1.0" encoding="UTF-8" standalone="no"?>
<svg
   version="1.1"
   id="svg2"
   xml:space="preserve"
   width="1021.8457"
   height="662.07684"
   viewBox="0 0 1021.8456 662.07681"
   sodipodi:docname="panorama.svg"
   inkscape:version="1.1 (c68e22c387, 2021-05-23)"
   xmlns:inkscape="http://www.inkscape.org/namespaces/inkscape"
   xmlns:sodipodi="http://sodipodi.sourceforge.net/DTD/sodipodi-0.dtd"
   xmlns:xlink="http://www.w3.org/1999/xlink"
   xmlns="http://www.w3.org/2000/svg"
   xmlns:svg="http://www.w3.org/2000/svg"
   xmlns:rdf="http://www.w3.org/1999/02/22-rdf-syntax-ns#"
   xmlns:cc="http://creativecommons.org/ns#"
   xmlns:dc="http://purl.org/dc/elements/1.1/"><metadata
     id="metadata8"><rdf:RDF><cc:Work
         rdf:about=""><dc:format>image/svg+xml</dc:format><dc:type
           rdf:resource="http://purl.org/dc/dcmitype/StillImage" /></cc:Work></rdf:RDF></metadata><defs
     id="defs6"><linearGradient
       inkscape:collect="always"
       id="linearGradient957"><stop
         style="stop-color:#e5a8d3;stop-opacity:1"
         offset="0"
         id="stop953" /><stop
         style="stop-color:#fcebe9;stop-opacity:0;"
         offset="1"
         id="stop955" /></linearGradient><clipPath
       clipPathUnits="userSpaceOnUse"
       id="clipPath22"><path
         d="M 18.924,56.631 H 781.075 V 282.692 H 18.924 Z"
         id="path20" /></clipPath><clipPath
       clipPathUnits="userSpaceOnUse"
       id="clipPath46"><path
         d="M 180.773,210.76 H 739.699 V 116.564 H 180.773 Z"
         id="path44" /></clipPath><linearGradient
       x1="0"
       y1="0"
       x2="1"
       y2="0"
       gradientUnits="userSpaceOnUse"
       gradientTransform="matrix(-45.721718,121.6858,121.6858,45.721718,493.38388,60.897232)"
       spreadMethod="pad"
       id="linearGradient56"><stop
         style="stop-opacity:1;stop-color:#ffffff"
         offset="0"
         id="stop52" /><stop
         style="stop-opacity:1;stop-color:#fff8e1"
         offset="1"
         id="stop54" /></linearGradient><linearGradient
       inkscape:collect="always"
       xlink:href="#linearGradient957"
       id="linearGradient959"
       x1="440.64801"
       y1="72.002296"
       x2="487.87109"
       y2="654.61255"
       gradientUnits="userSpaceOnUse"
       gradientTransform="matrix(1.3333333,0,0,-0.91608407,-25.231999,937.11268)" /></defs><sodipodi:namedview
     pagecolor="#ffffff"
     bordercolor="#666666"
     borderopacity="1"
     objecttolerance="10"
     gridtolerance="10"
     guidetolerance="10"
     inkscape:pageopacity="0"
     inkscape:pageshadow="2"
     inkscape:window-width="1920"
     inkscape:window-height="1013"
     id="namedview4"
     inkscape:pagecheckerboard="0"
     showgrid="false"
     inkscape:snap-global="false"
     fit-margin-top="0"
     fit-margin-left="0"
     fit-margin-right="0"
     fit-margin-bottom="0"
     inkscape:zoom="0.38624997"
     inkscape:cx="524.27188"
     inkscape:cy="286.08416"
     inkscape:window-x="-9"
     inkscape:window-y="-9"
     inkscape:window-maximized="1"
     inkscape:current-layer="g10" /><g
     id="g10"
     inkscape:groupmode="layer"
     inkscape:label="12686-NOYLFK"
     transform="matrix(1.3333333,0,0,-1.3333333,-25.231999,796.92772)"><path
       id="path14"
       style="fill:url(#linearGradient959);fill-opacity:1;fill-rule:nonzero;stroke:none;stroke-width:1.33333"
       d="M 0,277.02344 V 823.94922 H 1016.2012 V 277.02344 Z"
       transform="matrix(0.75000002,0,0,-0.75000002,18.924,720.55614)" /><path
       d="m 210.9208,278.3905 c -5.614,0.638 -17.728,1.448 -22.066,-0.773 -2.896,-1.484 -5.44,-4.981 -7.918,-5.404 -2.402,-0.408 -15.913,1.207 -10.183,-2.702 -13.506,9.214 -11.34,-10.803 -18.667,-10.803 -4.738,0 -37.761,-0.201 -34.513,-4.631 -2.861,0 -33.628,-6.993 -33.378,-7.333 -4.071,-1.389 -8.431,-1.546 -13.578,-1.546 -8.399,0 8.635,-1.943 12.448,-2.315 15.423,-1.502 31.541,-1.542 48.085,-1.542 61.855,0 124.906,1.542 184.43,1.542 -9.8,3.34 -20.646,3.475 -29.984,7.719 -8.359,3.803 -3.742,8.7 -13.013,10.808 -13.688,3.11 -16.051,-4.249 -25.455,-4.249 -2.518,0 -6.224,0.125 -6.224,1.933 0,6.046 -8.933,13.342 -15.842,15.435 -6.85,2.078 -7.353,-5.907 -7.353,-1.929 0,3.828 -2.981,3.19 -6.789,5.79"
       style="fill:#ffffff;fill-opacity:1;fill-rule:evenodd;stroke:none"
       id="path26" /><path
       id="path30"
       style="fill:#955e82;fill-opacity:1;fill-rule:nonzero;stroke:none;stroke-width:1.33333"
       d="m 344.01758,638.49219 c -20.22933,0 -38.62283,40.25361 -57.29883,39.49023 -18.67467,-0.76577 -14.32433,-24.83116 -38.23633,-24.85156 -23.90933,-0.0204 -35.28628,35.70125 -51.23828,42.00391 -15.95333,6.30505 -34.57387,18.34927 -52.2832,18.33593 -17.71334,-0.018 -61.129326,10.86173 -79.722659,10.26758 -18.597333,-0.58813 -43.413422,9.72662 -59.3574216,10.86328 -1.076751,0.0767 -2.1772914,0.11311 -3.2910156,0.125 v 85.42383 H 1021.8457 V 704.20898 c -4.3987,-2.29972 -8.9226,-4.72969 -13.4199,-7.23828 -24.76802,-13.80437 -40.74361,1.6873 -45.18361,8.00196 -4.43867,6.31344 -17.7269,8.02691 -29.24024,8.58984 -11.512,0.56532 -25.73391,25.82438 -39.03125,33.2793 -13.30133,7.45372 -75.27186,-1.21287 -97.39453,-9.84766 -22.12266,-8.63239 -59.31165,-9.81088 -71.70898,-9.82422 -12.4,-0.0108 -30.9947,-1.74982 -48.69336,-8.08008 -17.69733,-6.33265 -41.61078,-5.78097 -57.55078,-5.79296 -15.93867,-0.0132 -31.39259,-6.14184 -44.66993,-8.45118 -13.27999,-2.30692 -31.99876,1.595 -51.49609,7.32032 -19.49066,5.7277 -38.80082,-20.35952 -58.27148,-24.39844 -19.47467,-4.03534 -33.53041,6.13334 -50.06641,-5.08203 -16.53467,-11.21539 -52.80823,-44.19336 -71.10156,-44.19336 z"
       transform="matrix(0.75000002,0,0,-0.75000002,18.924,720.55614)" /><path
       id="path34"
       style="fill:#754472;fill-opacity:1;fill-rule:nonzero;stroke:none;stroke-width:1.33333"
       d="m 716.3457,630.57422 c -44.86636,15.01319 -129.13528,85.07575 -168.91601,86.43359 -21.07283,21.36727 -27.05073,24.88089 -58.49024,15.02149 -19.496,-6.36267 -38.08265,-2.51648 -51.36133,0.0488 -13.27866,2.56401 -33.61788,19.1709 -49.56054,19.18555 -15.93733,0.0133 -39.8475,-0.60107 -57.54883,6.4336 -17.69733,7.032 -36.29079,8.96456 -48.68945,8.97656 -12.39867,0.0147 -49.59156,1.32473 -71.71289,10.91406 -22.12134,9.592 -84.09257,19.2175 -97.39258,10.9375 -13.297333,-8.28132 -27.519872,-36.3388 -39.033205,-36.9668 -11.513333,-0.62532 -24.800234,-2.52961 -29.240234,-9.54297 -4.354125,-6.87691 -19.81319,-23.47256 -43.75390662,-9.67578 V 825.8906 H 1019.418 v -52.29101 c -6.1123,1.04108 -12.1588,1.76307 -17.6563,1.32812 C 985.81909,773.66505 961.00296,762.206 942.4043,762.85936 904.46054,786.12025 810.70114,627.99017 716.3457,630.57422 Z"
       transform="matrix(0.75000002,0,0,-0.75000002,18.924,720.55614)" /><path
       id="path38"
       style="fill:#644266;fill-opacity:1;fill-rule:evenodd;stroke:none;stroke-width:1.33333"
       d="m 283.78711,678.4043 c -0.308,0.0693 0.29733,0.5269 0,0.65625 -1.92,0.91865 -4.64882,1.37606 -6.77149,2.16406 -1.11333,0.38933 -1.81426,1.63553 -2.82226,2.10351 -2.02668,0.848 -4.955,1.04903 -6.875,2.09571 -2.016,1.11732 -3.62929,2.03364 -5.75195,2.82031 -0.80534,0.26 -2.4184,0.39917 -2.92774,0.72852 -1.20933,0.91733 -0.40302,1.4375 -2.92969,1.4375 -6.664,0 -13.52939,0.13664 -19.38671,-0.72071 -5.656,-0.848 -7.67327,0.66033 -10.69727,2.09766 -1.624,0.72667 -1.20908,0.26693 -2.92773,0.65625 0,0 -3.03513,2.89148 -3.8418,3.54883 -1.30533,0.91732 -3.33136,3.41061 -4.94336,4.19726 -1.92133,0.988 -5.85915,3.21364 -7.67383,3.54297 -1.62267,0.32934 -2.02641,0.0692 -2.92773,0.72656 -11.716,8.396 -27.06127,16.26557 -40.69727,24.60157 -4.74267,2.82132 -10.59941,6.42964 -16.55273,8.40429 -5.656,1.83468 -11.11099,3.47119 -16.45899,5.64454 -10.75193,4.25081 -82.167884,22.37767 -128.95507562,51.79687 V 822.6543 H 1003.0977 v -13.70703 l -0.1797,-0.0957 c -15.08006,-8.10132 -50.31013,-16.98203 -58.8848,-24.7207 l -10.75976,-7.33203 c -6.97067,0 -15.2271,-8.89932 -22.09375,-9.55664 -5.72,-0.52 -15.89521,-1.54158 -21.78321,-2.01758 -11.15333,-0.892 -15.92931,-14.18821 -26.44531,-15.82422 -7.364,-1.116 -16.55355,-3.33892 -23.32422,-5.57227 -3.53333,-1.18665 -8.27617,-1.37694 -11.71484,-2.82226 -10.39867,-4.596 -23.62134,-4.92525 -32.91602,0.71875 -4.94532,3.02 -10.50668,6.6297 -16.55468,9.12305 -3.84134,1.50533 -8.38271,3.47911 -11.60938,4.92578 -1.41067,0.64933 -3.43761,0.64833 -4.84961,1.375 -1.11465,0.65733 -1.71736,1.50539 -2.83203,2.16406 -1.708,0.848 -4.13874,1.17781 -5.85742,2.03516 -0.296,0.12933 0.212,0.58808 0,0.71875 -2.51467,1.24533 -6.75969,2.4306 -8.67969,4.19726 -1.70932,1.51467 -0.30781,2.56091 -1.00781,4.26758 -0.096,0.19867 -0.80843,-0.2 -1.00977,0 -0.80666,0.856 -0.91192,0.78799 -1.91992,1.44531 -0.20133,0.12934 0.20267,0.52887 0,0.65821 -4.648,2.424 -13.62386,3.01241 -20.39453,2.09375 -1.92133,-0.32 -3.33214,-0.71864 -4.74414,-1.44532 -0.308,-0.06 0.096,-0.51777 0,-0.64843 -4.13733,-1.97334 -9.39272,-3.02179 -13.63672,-4.92579 -7.47068,-3.34133 -14.44174,-6.56171 -22.31641,-9.12304 -8.67866,-2.88267 -18.27163,-4.71741 -27.15429,-7.08008 -1.92,-0.45867 -3.9361,-0.26087 -5.85742,-0.6582 -1.81468,-0.45867 -3.02428,-1.70539 -4.84961,-2.16407 -1.92,-0.39865 -4.03196,-0.26008 -5.75196,-0.71875 -1.71866,-0.32933 -3.23536,-1.11676 -4.94336,-1.38476 -1.82533,-0.328 -3.94807,-0.25954 -5.85742,-0.6582 -6.06,-1.57467 -11.51345,-3.73877 -17.4668,-5.63477 -17.67865,-5.78267 -34.94487,-13.52286 -51.29687,-21.13086 -1.21067,-0.468 -2.83155,-0.19892 -3.93555,-0.65625 -1.22,-0.58933 -1.72036,-1.57552 -2.92968,-2.10352 -0.616,-0.26 -1.41059,0.268 -1.91993,0 -1.51733,-0.65733 -2.52579,-1.2477 -3.84179,-2.0957 -4.436,-2.76133 -6.66427,-6.10171 -9.79492,-9.12305 -0.392,-0.45866 -1.50584,-0.26008 -1.8125,-0.71875 -1.412,-1.44533 -1.21085,-3.55078 -3.9375,-3.55078 -5.34935,0 -8.98829,0.98947 -13.62696,2.10547 -4.64666,1.17735 -10.10215,1.50396 -14.54883,2.75195 -4.944,1.51467 -10.3975,2.10369 -15.4375,3.54102 -5.964,1.77467 -8.2885,4.33546 -15.45117,4.99414 -5.35866,0.45867 -11.21645,0 -16.56445,0 h -3.83203 c -0.30667,0.06 0.29733,0.59039 0,0.65039 -1.516,0.59734 -3.23628,0.3279 -4.84961,0.72656 -0.40267,0.0613 0.29733,0.58942 0,0.71875 -1.00667,0.39735 -1.81307,0.45875 -2.92774,0.71875 -3.236,0.796 -4.94412,0.33723 -8.68945,0.72657 -1.50667,0.13066 -2.93051,0.6582 -4.83984,0.6582 -12.024,0 -21.71163,-1.70627 -32.01563,-2.82227 -8.17066,-0.78666 -12.10794,-3.54976 -18.47461,-6.37109 -1.41066,-0.58933 -4.24409,-0.9783 -5.85742,-1.37695 -5.45467,-1.50535 -11.00433,-3.66934 -16.45898,-4.91602 -8.78535,-1.97332 -14.33446,-3.48141 -22.31446,-6.30273 -2.01733,-0.788 -4.83918,-0.65865 -6.86718,-1.44532 -4.54135,-1.83599 -8.98797,-4.19831 -13.5293,-6.29296 -0.90267,-0.39868 -2.0144,-0.32985 -2.92774,-0.72852 -0.7,-0.328 -1.10349,-1.04568 -1.91015,-1.375 -3.332,-1.30668 -7.67237,-2.10367 -10.70703,-3.54102 -3.13067,-1.50665 -5.45436,-3.7385 -8.67969,-4.92382 -0.50932,-0.19868 -3.3335,-0.19868 -3.9375,0 z"
       transform="matrix(0.75000002,0,0,-0.75000002,18.924,720.55614)" /><g
       id="g64"
       style="opacity:0.0599976"><g
         id="g62"><g
           id="g60"><path
             d="m 209.886,174.963 -1.846,0.051 -13.482,3.052 c -3.359,0.76 -6.765,0.636 -10.148,2.116 h -2.196 l -0.677,1.085 h -0.764 v 2.064 l 2.882,3.201 c 1.671,1.862 4.902,2.993 7.345,4.232 0.629,0.455 0.199,0.825 0.685,1.526 0.485,0.136 1.639,0.299 2.332,0.091 -0.136,0.175 0.382,0.812 0.541,0.994 l 3.637,3.148 c -0.446,1.181 -1.902,1.883 -4.314,2.116 -0.955,0.027 -1.679,0.215 -2.196,0.539 -0.645,0.636 -0.685,1.377 -0.685,2.117 0.271,0.532 3.192,0.662 12.344,0 2.165,-0.189 3.303,0.09 4.48,0.35 l 2.07,-0.876 c -2.65,-2.707 -6.263,-5.187 -10.943,-7.394 l -2.873,-1.085 c 0.199,-0.227 0.23,-0.415 0,-0.539 v -0.987 l 1.361,-1.623 c -1.035,-1.934 -2.101,-3.654 -0.82,-5.135 0.43,-0.493 1.656,-0.655 2.332,-0.675 l 0.756,-2.064 c 0.891,-0.13 1.791,-0.274 2.682,-1.253 0.565,-1.494 2.61,-2.487 4.513,-3.526 l 1.138,0.104 z m 163.335,-9.005 c -0.207,-0.013 -0.35,-0.019 -0.406,0 -0.987,0.396 1.894,6.551 0.756,7.336 -0.684,0.494 -5.754,0 -7.266,0 -6.001,0 -11.492,-0.474 -17.047,-1.136 l -0.375,-0.045 c -2.419,-0.299 -4.846,-0.591 -7.345,-0.89 -1.059,-0.097 -1.894,-0.247 -2.882,-0.494 -0.222,-0.097 0.239,-0.486 0,-0.538 h -4.313 c -1.735,-0.292 -1.281,-0.539 -3.024,-0.539 -4.242,0 0.756,2.065 0.756,2.065 0.533,1.181 0.302,1.136 0.756,2.116 0.071,0.194 1.138,0.149 0.756,1.084 -0.072,0.143 -0.605,-0.149 -0.756,0 -1.743,1.87 -5.15,2.558 -6.59,4.772 -0.605,0.149 -1.512,-0.195 -2.117,0 -0.302,0.052 0.231,0.441 0,0.493 -0.684,0.195 -1.592,-0.149 -2.276,0 -0.374,0.15 -0.223,0.442 -0.605,0.539 h -2.268 c -0.231,0.052 0.302,0.494 0,0.546 -1.138,0.246 -3.104,0.343 -3.566,0.493 -0.676,0.143 -1.583,-0.201 -2.268,0 -0.151,0.045 0.231,0.39 0,0.487 h -0.684 c 0,1.922 8.563,-0.883 9.391,-0.98 1.743,-0.299 4.17,0 5.913,0 5.372,-0.319 10.673,-0.332 15.973,0 1.966,-0.195 3.995,-0.092 6.017,0 h 1.257 c 0.303,0.045 -0.23,0.441 0,0.493 h 1.512 c 0.152,0.045 -0.302,0.441 0,0.487 0.375,0.149 1.059,-0.241 1.362,0 0.381,0.299 -0.303,0.837 0,1.084 0.381,0.247 1.058,-0.045 1.511,0 0.995,0.097 1.895,0.396 2.882,0.545 2.419,0 8.332,0.591 10.902,0 5.452,-1.33 5.302,-10.978 6.591,-14.224 0.151,-0.344 -0.374,-0.785 0,-1.039 1.209,-1.13 11.054,2.565 9.47,-1.078 -0.533,-1.084 -3.485,-0.298 -5.077,-0.544 -0.796,-0.085 -5.476,-0.923 -6.94,-1.033 m -22.969,-26.377 c -2.403,0.11 -4.815,0.272 -7.219,0.532 -2.817,0.298 -5.491,0.864 -8.69,1.045 -8.174,0.442 -16.658,0 -24.839,0 h -14.54 c -1.433,-0.104 -2.269,-1.084 -4.314,-0.493 -0.231,0 0.223,0.441 0,0.493 -1.138,0.24 -2.578,-0.299 -3.637,0 -0.303,0.046 0.151,0.39 0,0.493 -2.117,1.52 -3.486,3.292 -6.582,4.772 -0.382,0.195 -0.987,-0.097 -1.44,0 -1.512,0.487 -2.348,0.247 -3.638,0.539 -0.23,0.052 0.223,0.493 0,0.546 -0.604,0.097 -3.788,-0.053 -1.44,0.538 2.73,0.643 8.181,0 10.903,0 h 13.785 c 2.65,0 6.208,-0.493 8.786,0 2.571,0.442 -2.276,2.954 -2.952,3.642 -2.953,3.246 -2.73,7.629 -5.834,10.53 -3.709,3.642 -11.962,2.214 -18.17,1.085 l -2.204,-1.085 c -0.908,-0.194 -1.966,0.248 -2.874,0 -4.997,-1.084 -9.764,-2.018 -15.296,-1.032 -3.183,0.591 -5.754,1.87 -8.715,2.655 -4.464,1.137 -10.219,1.578 -14.532,3.15 -3.788,1.382 -9.542,3.005 -12.344,0 -0.915,-0.936 -6.287,-2.604 -8.101,-3.15 -0.916,-0.292 -5.954,-0.369 -8.525,-0.519 -0.485,0.143 -5.085,-0.779 -5.34,-0.655 -1.058,0.519 3.916,1.999 5.532,2.947 3.939,2.707 12.566,5.953 14.158,6.641 0.454,0.202 1.059,-0.194 1.52,0 0.446,0.254 0.223,0.793 0.756,1.039 0.303,0.247 0.979,-0.149 1.361,0 2.197,0.98 4.465,1.13 6.59,2.162 0.828,0.344 1.361,1.233 2.197,1.578 h 1.44 c 2.34,0.591 4.536,0.837 7.266,1.032 1.664,0.097 10.904,-0.292 10.904,1.623 0,1.084 -0.836,0.591 -1.441,1.032 -0.374,0.299 -0.828,1.136 -1.441,1.526 -0.222,0.201 -1.281,0.396 -1.432,0.545 -0.533,0.539 -0.302,1.623 -0.756,2.117 -0.987,1.181 -3.414,2.557 -5.149,3.2 -1.672,0.636 -4.775,1.324 -2.882,1.571 3.788,0.493 7.872,-0.539 11.66,0 2.714,0.487 4.314,2.273 1.552,4.557 -2.785,2.305 -8.277,4.707 -8.659,5.078 -0.072,0.142 -2.205,0.259 -2.356,0.409 -2.65,1.967 -5.531,3.934 -8.022,5.758 -0.613,0.539 -0.684,1.623 -1.441,2.11 h -0.684 c -0.278,0.52 0.048,1.61 0.334,2.37 0.096,0.233 0.223,0.792 0.43,0.798 4.847,-2.35 7.577,-4.843 13.936,-6.154 3.637,-0.747 6.884,-3.259 10.099,-4.564 4.234,-1.727 8.364,-2.357 12.989,-4.064 0.732,-0.234 6.319,-1.377 11.595,-3.422 1.48,-0.571 2.133,-2.824 3.598,-3.447 2.53,-1.091 6.223,-0.188 8.412,-0.837 3.247,-0.962 4.528,-3.221 4.791,-3.363 0.605,-0.299 1.44,-0.15 2.196,-0.494 0.231,-0.149 0.454,-0.883 0.756,-1.084 1.823,-1.325 6.439,-4.032 7.195,-5.759 0.454,-0.785 0.159,-0.934 0,-1.084 -0.676,-1.525 1.592,-2.162 2.953,-2.655 4.624,-1.675 10.68,-3.052 15.981,-4.726 2.045,-0.585 3.867,-1.572 5.905,-2.116 1.894,-0.488 4.775,-0.734 6.438,-1.572 0.303,-0.097 1.138,-1.084 2.277,-0.539 0.151,0.098 -0.231,0.442 0,0.539 1.432,0.74 1.734,0.195 3.629,0.539 0.342,0.058 0.557,0.091 0.979,0.15 l 0.159,0.019 c 0.334,0.039 2.014,0.279 2.38,0.324 2.442,0.241 4.958,0.267 7.385,0 1.672,-0.149 5.38,-0.493 6.518,-1.032 4.011,-1.922 8.333,-5.018 12.416,-7.381 2.881,-1.675 3.708,-1.481 7.274,-2.116 0.222,-0.053 -0.303,-0.442 0,-0.546 1.21,-0.292 2.268,-0.344 3.558,-0.487 9.24,-1.383 18.63,-3.103 26.199,-5.81 2.045,-0.786 4.393,-1.916 7.274,-1.571 1.664,0.194 2.65,0.538 4.314,0.538 1.966,0 3.939,-0.467 5.73,-0.889 l 0.859,-0.195 c 8.103,-1.922 16.809,-3.688 25.444,-4.233 0.383,0 10.904,0.494 6.59,-1.078 -2.65,-0.74 -5.603,-0.986 -8.787,-0.986 -3.636,0 -8.634,-0.539 -11.659,0.493 -3.103,1.13 -4.623,2.655 -9.391,2.655 -0.915,0 -2.284,-0.006 -3.191,-0.006 -8.182,-0.403 -15.782,-1.5 -25.205,0.5 h -3.637 c -1.966,0.292 -4.091,1.181 -5.834,1.623 -3.351,0.733 -6.104,1.071 -8.34,1.052 l 3.262,-1.598 c 2.659,-0.882 5.914,-2.259 8.031,-3.194 1.368,-0.175 3.565,-0.149 5.077,-1.032 2.571,-0.188 2.722,-0.909 4.394,-1.032 -6.057,0 -12.273,-0.299 -18.099,0 -2.347,0.142 -5.3,0.539 -8.101,0.539 -1.903,0 -7.346,0.389 -9.471,0 -2.046,-0.448 -2.419,-1.084 -5.07,-1.084 z m 194.239,-1.526 c -4.999,0 -10.681,1.674 -15.297,2.61 -2.269,0.389 -3.104,0.292 -5.07,0.986 -3.486,1.273 -7.807,3.052 -11.667,3.733 -1.131,0.202 -2.419,-0.194 -3.629,0 -8.866,1.286 -17.048,5.765 -26.208,5.765 -0.135,0 -0.167,-3.635 -2.077,-4.453 -0.39,-0.169 -2.993,1.616 -3.391,1.441 -1.965,-0.857 -3.335,-0.746 -3.923,-1.175 -0.303,-0.195 -2.499,0 -2.953,0 0.311,0.247 2.046,0.987 2.197,1.578 0.23,1.077 -0.525,1.967 0.756,2.609 0.708,0.409 3.709,1.013 4.982,2.597 -2.754,0.429 -9.614,1.065 -10.052,1.143 -3.334,0.442 -5.603,1.525 -8.786,2.116 -2.125,0.39 -5.683,-0.052 -8.03,0.487 -0.677,0.202 -3.104,1.974 -3.63,2.168 -0.986,0.293 -1.822,0.293 -2.881,0.494 -4.544,0.935 -8.937,1.915 -13.553,2.61 l -0.31,0.032 c -5.007,0.689 -10.227,1.032 -16.292,0.539 -3.477,-0.292 -8.245,-0.883 -11.659,-1.571 -0.756,-0.195 -3.334,-1.279 -4.314,-1.032 -0.509,0.136 -4.838,-0.565 -4.998,-0.448 2.65,1.097 6.041,1.727 6.359,1.974 0.533,0.344 7.617,1.61 8.142,1.856 2.205,2.565 5.969,3.103 7.027,3.343 0.415,0.105 2.85,2.721 3.009,2.773 2.571,0.591 3.557,0.935 5.149,2.064 -2.276,0 -3.94,0.545 -6.518,0.545 0.533,0.39 2.093,1.552 2.77,2.247 0.342,0.35 -0.374,0.026 -1.234,1.922 -0.271,0.59 -1.719,1.655 -1.838,2.343 -0.073,0.429 2.307,2.104 2.204,2.5 -0.382,1.5 -1.799,2.836 -1.902,3.09 -0.454,0.889 -2.197,7.089 -2.197,7.927 l 2.412,-1.837 1.615,0.201 c 1.09,-0.065 1.648,-2.162 2.133,-4.59 2.125,-2.902 4.258,-4.239 6.383,-5.33 1.257,0.292 2.523,0.279 3.78,0.156 2.181,-0.987 2.905,-1.968 3.208,-2.954 l 3.558,-0.312 c 4.011,-0.389 2.872,-6.018 7.106,-8.485 3.892,-1.013 8.174,2.292 12.264,0.546 l 10.315,-4.746 c 3.207,-0.857 7.529,-1.208 9.399,-2.338 1.87,-2.415 3.741,-3.246 5.611,-3.733 l 6.748,-0.324 c 0.152,-0.149 -0.301,-0.493 0,-0.545 2.348,-0.591 4.315,-1.624 6.591,-2.117 1.742,-0.442 2.419,-0.046 4.313,-0.538 0.231,-0.053 -0.231,-0.442 0,-0.546 0.398,-0.084 4.083,-1.545 5.276,-2.389 2.253,-1.584 2.611,-3.201 4.195,-4.941 0.072,-0.149 0.525,0.097 0.756,0 0.828,-0.642 1.488,-1.051 2.626,-1.35 2.874,-0.688 6.232,0.954 8.962,1.35 2.117,0.299 4.544,-0.396 6.582,0 0.612,0.097 3.867,0.195 4.393,0 1.066,-0.097 6.446,-3.986 6.518,-4.772 2.037,-1.973 3.103,-3.791 5.07,-5.219 m 195.208,-21.087 c -8.937,0.643 -13.689,7.356 -22.698,7.356 -4.616,0 -8.858,1.526 -13.179,2.117 -2.348,0.343 -3.104,0.052 -4.998,0.538 -0.716,0.033 -12.018,6.973 -14.796,13.335 0.351,-0.182 14.119,-5.713 19.086,-5.324 2.586,-1.136 3.637,-0.889 5.785,-1.168 0,1.019 -13.967,6.758 -21.862,9.466 -2.029,0.7 -3.685,1.129 -4.632,1.129 -3.812,2.22 -5.873,-2.519 -4.027,-5.823 0,-0.883 -0.374,-2.311 0,-3.195 0.152,-0.343 0.756,-0.149 0.756,-0.493 0,-1.084 -10.067,-0.785 -11.659,-0.539 -1.361,0.143 -6.208,1.864 -6.51,2.655 -0.112,0.202 0.669,2.942 -3.152,5.064 0.008,1.604 3.573,4.324 2.953,5.655 -0.86,1.831 -4.17,3.181 -5.905,4.954 -2.237,-0.033 -7.529,-3.039 -7.76,-3.078 -1.663,-0.194 -5.825,0.149 -5.825,-1.077 0,-0.15 0.676,-4.233 -1.521,-4.233 -0.151,0 0.23,0.441 0,0.539 -0.151,0.194 -1.281,0.344 -1.361,0.538 -0.605,0.695 -0.071,0.792 -1.512,1.039 -6.701,-2.409 -15.225,-6.044 -17.087,-5.161 -2.037,1.532 2.777,4.837 10.497,8.901 0.685,0.389 3.335,1.87 3.709,2.61 0.382,0.83 0.08,1.077 0.684,1.571 0.621,0.428 0.366,3.337 -1.87,5.421 -2.411,2.246 -6.837,3.745 -6.837,6.193 0.455,0 3.28,0.669 7.012,-0.539 2.841,-0.915 6.765,-2.831 7.29,-5.187 4.003,-1.474 10.307,-1.11 13.339,-1.11 9.232,0 9.081,-2.603 17.485,-4.129 2.34,-1.584 2.468,-4.155 6.662,-6.531 2.419,-1.364 7.401,-1.708 10.33,-2.759 4.894,-1.754 15.479,-1.214 17.453,-2.019 2.499,-1.02 5.842,-5.512 12.622,-8.57 4.067,-2.364 2.85,-5.512 6.033,-7.245 5.682,-3.084 12.948,-7.167 15.495,-10.901 M 619.27,116.566 c -0.056,-0.007 -0.128,0 -0.16,0.032 -2.881,1.182 -6.279,1.772 -9.112,3 -1.441,0.642 -2.881,1.629 -4.394,2.071 -0.604,0.195 -1.52,-0.15 -2.196,0 -0.151,0.045 -2.045,1.428 -2.873,2.655 -0.987,0.247 -2.579,0 -3.637,0 -1.441,0 -2.499,0.441 -2.953,0.539 -3.103,0.74 -10.76,-1.818 -7.958,2.662 0.684,0.98 1.368,2.064 2.196,2.655 0.534,0.344 1.441,0.201 1.441,0.987 0,0.74 -1.281,0.785 -2.197,0.538 -3.184,-0.687 -6.813,-0.538 -10.147,-0.538 -1.281,0 -8.556,-2.019 -8.779,-2.071 -2.196,-0.539 -4.623,0.35 -6.589,-0.539 -2.579,-1.13 -2.81,-0.591 -5.755,-1.032 -0.159,-0.052 -2.952,-1.084 -3.716,-0.546 -0.231,0.201 0,1.824 0,2.117 0,1.428 0.382,3.447 -0.677,4.187 -0.628,0.455 -0.199,2.882 -1.503,4.35 -1.226,1.376 -4.219,1.804 -4.251,1.948 -0.31,0.986 0.374,1.674 0.677,2.609 9.168,-2.753 14.62,-6.94 25.444,-8.907 0.533,-0.104 0.987,-0.396 1.512,-0.545 3.263,-0.689 5.077,1.084 7.959,1.084 3.405,0 6.056,0.545 10.218,0.545 4.696,0 5.078,-2.363 7.195,-4.726 1.209,-1.279 2.428,-1.525 3.637,-2.662 l 12.415,-7.868 c 0.534,-0.299 3.868,-1.773 4.393,-2.169 0.104,-0.064 -0.023,-0.233 -0.063,-0.357 -0.008,-0.006 -0.064,-0.019 -0.127,-0.019"
             style="fill:url(#linearGradient56);fill-rule:evenodd;stroke:none"
             id="path58" /></g></g></g><path
       d="m 631.3893,265.019 c -10.09,16.794 -28.423,2.362 -34.032,-6.984 -3.293,5.471 -8.609,5.823 -14.921,5.823 -5.695,0 -3.564,-9.058 -9.792,-6.989 -14,4.662 -20.606,-1.548 -33.103,-1.548 -11.46,0 -23.618,-0.392 -35.434,-0.392 -14.943,0 21.27,-2.691 27.044,-3.492 28.592,-3.964 62.17,-0.774 91.848,-0.774 12.683,0 24.743,0.387 37.297,0.387 1.856,0 11.705,-0.659 12.123,0.387 3.452,8.631 -15.392,3.884 -16.785,4.271 -0.08,0.022 -14.453,14.294 -14.453,7.371 0,2.402 -6.086,-1.143 -9.792,1.94"
       style="fill:#ffffff;fill-opacity:1;fill-rule:evenodd;stroke:none"
       id="path78" /><path
       id="rect19073"
       style="fill:#754472;stroke-width:3.8693"
       d="m 553.52015,284.19968 1.94174,-0.24272 1.98544,-47.12658 h -6.86512 z"
       sodipodi:nodetypes="ccccc" /><path
       style="fill:#754472;fill-opacity:1;stroke:none;stroke-width:0.75px;stroke-linecap:butt;stroke-linejoin:miter;stroke-opacity:1"
       d="m 559.70879,244.92232 v 13.34952 c 1.99969,4.83636 7.46896,4.49651 9.70875,0.24272 l -0.24272,-23.54369 z"
       id="path21643"
       sodipodi:nodetypes="ccccc" /><ellipse
       style="fill:#754472;fill-opacity:1;stroke:none;stroke-width:3.8693"
       id="path23018"
       cx="564.56317"
       cy="-263.36893"
       transform="scale(1,-1)"
       rx="2.4271846"
       ry="2.9126215" /><path
       style="fill:#754472;fill-opacity:1;stroke:none;stroke-width:0.75px;stroke-linecap:butt;stroke-linejoin:miter;stroke-opacity:1"
       d="m 561.35013,260.30573 -2.40279,2.74604 h 11.67071 l -2.91768,-3.08929 z"
       id="path23133"
       sodipodi:nodetypes="ccccc" /><path
       sodipodi:type="star"
       style="fill:#ffffff;fill-opacity:1;stroke:none;stroke-width:8.23582"
       id="path25647"
       inkscape:flatsided="false"
       sodipodi:sides="4"
       sodipodi:cx="165.69582"
       sodipodi:cy="289.96765"
       sodipodi:r1="19.717213"
       sodipodi:r2="9.8586063"
       sodipodi:arg1="0.40489179"
       sodipodi:arg2="1.19029"
       inkscape:rounded="-3.46945e-18"
       inkscape:randomized="0"
       d="m 183.81879,297.73464 -14.46158,1.3865 -11.42838,8.96949 -1.3865,-14.46158 -8.96949,-11.42839 14.46158,-1.3865 11.42839,-8.96949 1.38649,14.46159 z"
       transform="matrix(0.44695423,0,0,-0.49384086,6.6648714,497.82857)"
       inkscape:transform-center-x="-0.69578124"
       inkscape:transform-center-y="-2.557106" /><path
       sodipodi:type="star"
       style="fill:#ffffff;fill-opacity:1;stroke:none;stroke-width:8.23582"
       id="path25647-6"
       inkscape:flatsided="false"
       sodipodi:sides="4"
       sodipodi:cx="165.69582"
       sodipodi:cy="289.96765"
       sodipodi:r1="19.717213"
       sodipodi:r2="9.8586063"
       sodipodi:arg1="0.40489179"
       sodipodi:arg2="1.19029"
       inkscape:rounded="-3.46945e-18"
       inkscape:randomized="0"
       transform="matrix(0.40465229,0.1898015,0.20971215,-0.44710134,169.61145,554.48491)"
       inkscape:transform-center-x="0.4559585"
       inkscape:transform-center-y="-2.6105504"
       d="m 183.81879,297.73464 -14.46158,1.3865 -11.42838,8.96949 -1.3865,-14.46158 -8.96949,-11.42839 14.46158,-1.3865 11.42839,-8.96949 1.38649,14.46159 z" /><path
       sodipodi:type="star"
       style="fill:#ffffff;fill-opacity:1;stroke:none;stroke-width:8.23582"
       id="path25647-3"
       inkscape:flatsided="false"
       sodipodi:sides="4"
       sodipodi:cx="165.69582"
       sodipodi:cy="289.96765"
       sodipodi:r1="19.717213"
       sodipodi:r2="9.8586063"
       sodipodi:arg1="0.40489179"
       sodipodi:arg2="1.19029"
       inkscape:rounded="-3.46945e-18"
       inkscape:randomized="0"
       transform="matrix(0.44695423,0,0,-0.49384086,81.481343,731.94381)"
       inkscape:transform-center-x="-0.69578124"
       inkscape:transform-center-y="-2.557106"
       d="m 183.81879,297.73464 -14.46158,1.3865 -11.42838,8.96949 -1.3865,-14.46158 -8.96949,-11.42839 14.46158,-1.3865 11.42839,-8.96949 1.38649,14.46159 z" /><path
       sodipodi:type="star"
       style="fill:#ffffff;fill-opacity:1;stroke:none;stroke-width:8.23582"
       id="path25647-0"
       inkscape:flatsided="false"
       sodipodi:sides="4"
       sodipodi:cx="165.69582"
       sodipodi:cy="289.96765"
       sodipodi:r1="19.717213"
       sodipodi:r2="9.8586063"
       sodipodi:arg1="0.40489179"
       sodipodi:arg2="1.19029"
       inkscape:rounded="-3.46945e-18"
       inkscape:randomized="0"
       transform="matrix(0.44695423,0,0,-0.49384086,394.53059,384.56898)"
       inkscape:transform-center-x="-0.69578124"
       inkscape:transform-center-y="-2.557106"
       d="m 183.81879,297.73464 -14.46158,1.3865 -11.42838,8.96949 -1.3865,-14.46158 -8.96949,-11.42839 14.46158,-1.3865 11.42839,-8.96949 1.38649,14.46159 z" /><path
       sodipodi:type="star"
       style="fill:#ffffff;fill-opacity:1;stroke:none;stroke-width:8.23582"
       id="path25647-38"
       inkscape:flatsided="false"
       sodipodi:sides="4"
       sodipodi:cx="165.69582"
       sodipodi:cy="289.96765"
       sodipodi:r1="19.717213"
       sodipodi:r2="9.8586063"
       sodipodi:arg1="0.40489179"
       sodipodi:arg2="1.19029"
       inkscape:rounded="-3.46945e-18"
       inkscape:randomized="0"
       transform="matrix(0.31547424,0.31661347,0.34982702,-0.34856829,576.98611,422.97184)"
       inkscape:transform-center-x="1.3203051"
       inkscape:transform-center-y="-2.2977636"
       d="m 183.81879,297.73464 -14.46158,1.3865 -11.42838,8.96949 -1.3865,-14.46158 -8.96949,-11.42839 14.46158,-1.3865 11.42839,-8.96949 1.38649,14.46159 z" /></g></svg>
