<?xml version="1.0" encoding="UTF-8" standalone="no"?>
<svg
   version="1.1"
   x="0px"
   y="0px"
   viewBox="0 0 28.440001 12.12"
   xml:space="preserve"
   id="svg26"
   sodipodi:docname="Tent.svg"
   width="28.440001"
   height="12.12"
   inkscape:version="1.1 (c68e22c387, 2021-05-23)"
   xmlns:inkscape="http://www.inkscape.org/namespaces/inkscape"
   xmlns:sodipodi="http://sodipodi.sourceforge.net/DTD/sodipodi-0.dtd"
   xmlns="http://www.w3.org/2000/svg"
   xmlns:svg="http://www.w3.org/2000/svg"><defs
     id="defs30" /><sodipodi:namedview
     id="namedview28"
     pagecolor="#ffffff"
     bordercolor="#666666"
     borderopacity="1.0"
     inkscape:pageshadow="2"
     inkscape:pageopacity="0.0"
     inkscape:pagecheckerboard="0"
     showgrid="false"
     fit-margin-top="0"
     fit-margin-left="0"
     fit-margin-right="0"
     fit-margin-bottom="0"
     inkscape:zoom="20.6"
     inkscape:cx="13.956311"
     inkscape:cy="7.9368932"
     inkscape:window-width="1920"
     inkscape:window-height="1013"
     inkscape:window-x="-9"
     inkscape:window-y="-9"
     inkscape:window-maximized="1"
     inkscape:current-layer="svg26" /><g
     id="g20"
     transform="translate(-1.78,-9.94)"
     style="fill:#412643;fill-opacity:1"><g
       id="g18"
       style="fill:#412643;fill-opacity:1"><polygon
         points="14.14,22.05 14.14,21.65 8.57,10.73 8.57,17.21 11.07,22.05 "
         id="polygon2"
         style="fill:#412643;fill-opacity:1" /><polygon
         points="5.56,22.05 8.07,17.21 8.07,10.73 2.29,22.05 "
         id="polygon4"
         style="fill:#412643;fill-opacity:1" /><polygon
         points="8.32,17.81 6.13,22.05 10.51,22.05 "
         id="polygon6"
         style="fill:#412643;fill-opacity:1" /><path
         d="m 29.68,21.94 -5.16,-12 H 8.73 l 5.41,10.61 V 19.2 c 0,-0.27 0.23,-0.5 0.5,-0.5 0.28,0 0.5,0.22 0.5,0.5 v 2.86 h 11.89 2.7 0.01 l -0.01,-0.02 z m -7.91,-6.95 c -0.05,0.07 -0.13,0.11 -0.21,0.11 h -4.02 c -0.1,0 -0.18,-0.05 -0.23,-0.14 l -1.68,-3.29 c -0.04,-0.08 -0.04,-0.17 0.01,-0.25 0.04,-0.07 0.12,-0.12 0.21,-0.12 h 4.28 c 0.1,0 0.19,0.06 0.23,0.15 l 1.42,3.3 c 0.04,0.08 0.03,0.17 -0.01,0.24 z"
         id="path8"
         style="fill:#412643;fill-opacity:1" /><polygon
         points="21.18,14.61 19.97,11.8 16.26,11.8 17.69,14.61 "
         id="polygon10"
         style="fill:#412643;fill-opacity:1" /><path
         d="m 2.03,18.95 c -0.14,0 -0.25,0.11 -0.25,0.25 v 2.76 l 0.5,-0.97 V 19.2 c 0,-0.14 -0.11,-0.25 -0.25,-0.25 z"
         id="path12"
         style="fill:#412643;fill-opacity:1" /><path
         d="m 14.88,19.2 c 0,-0.14 -0.11,-0.25 -0.25,-0.25 -0.13,0 -0.25,0.11 -0.25,0.25 v 1.84 1.01 h 0.5 0.02 l -0.02,-0.04 z"
         id="path14"
         style="fill:#412643;fill-opacity:1" /><path
         d="m 29.97,18.94 c -0.14,0 -0.25,0.11 -0.25,0.25 v 1.59 l 0.5,1.15 v -2.74 c -0.01,-0.14 -0.11,-0.25 -0.25,-0.25 z"
         id="path16"
         style="fill:#412643;fill-opacity:1" /></g></g></svg>
